<?xml version="1.0" encoding="UTF-8" standalone="no"?>
<!-- Created with Inkscape (http://www.inkscape.org/) -->

<svg
   xmlns:dc="http://purl.org/dc/elements/1.1/"
   xmlns:cc="http://creativecommons.org/ns#"
   xmlns:rdf="http://www.w3.org/1999/02/22-rdf-syntax-ns#"
   xmlns:svg="http://www.w3.org/2000/svg"
   xmlns="http://www.w3.org/2000/svg"
   xmlns:xlink="http://www.w3.org/1999/xlink"
   xmlns:sodipodi="http://sodipodi.sourceforge.net/DTD/sodipodi-0.dtd"
   xmlns:inkscape="http://www.inkscape.org/namespaces/inkscape"
   width="210mm"
   height="297mm"
   viewBox="0 0 744.09448819 1052.3622047"
   id="svg2"
   version="1.1"
   inkscape:version="0.91 r13725"
   sodipodi:docname="avatars.svg">
  <defs
     id="defs4">
    <inkscape:path-effect
       effect="spiro"
       id="path-effect73463"
       is_visible="true" />
  </defs>
  <sodipodi:namedview
     id="base"
     pagecolor="#ffffff"
     bordercolor="#666666"
     borderopacity="1.0"
     inkscape:pageopacity="0.0"
     inkscape:pageshadow="2"
     inkscape:zoom="1.4"
     inkscape:cx="206.66494"
     inkscape:cy="223.01814"
     inkscape:document-units="px"
     inkscape:current-layer="layer1"
     showgrid="false"
     inkscape:window-width="1680"
     inkscape:window-height="960"
     inkscape:window-x="225"
     inkscape:window-y="0"
     inkscape:window-maximized="0" />
  <metadata
     id="metadata7">
    <rdf:RDF>
      <cc:Work
         rdf:about="">
        <dc:format>image/svg+xml</dc:format>
        <dc:type
           rdf:resource="http://purl.org/dc/dcmitype/StillImage" />
        <dc:title></dc:title>
      </cc:Work>
    </rdf:RDF>
  </metadata>
  <g
     inkscape:label="Layer 1"
     inkscape:groupmode="layer"
     id="layer1">
    <ellipse
       style="color:#000000;clip-rule:nonzero;display:inline;overflow:visible;visibility:visible;opacity:1;isolation:auto;mix-blend-mode:normal;color-interpolation:sRGB;color-interpolation-filters:linearRGB;solid-color:#000000;solid-opacity:1;fill:#000000;fill-opacity:1;fill-rule:nonzero;stroke:#000000;stroke-width:1;stroke-linecap:butt;stroke-linejoin:miter;stroke-miterlimit:4;stroke-dasharray:none;stroke-dashoffset:0;stroke-opacity:1;color-rendering:auto;image-rendering:auto;shape-rendering:auto;text-rendering:auto;enable-background:accumulate"
       id="path72791"
       cx="187.85713"
       cy="409.50504"
       rx="89.285713"
       ry="112.85714" />
    <path
       style="color:#000000;clip-rule:nonzero;display:inline;overflow:visible;visibility:visible;opacity:1;isolation:auto;mix-blend-mode:normal;color-interpolation:sRGB;color-interpolation-filters:linearRGB;solid-color:#000000;solid-opacity:1;fill:#000000;fill-opacity:1;fill-rule:nonzero;stroke:#000000;stroke-width:1;stroke-linecap:butt;stroke-linejoin:miter;stroke-miterlimit:4;stroke-dasharray:none;stroke-dashoffset:0;stroke-opacity:1;color-rendering:auto;image-rendering:auto;shape-rendering:auto;text-rendering:auto;enable-background:accumulate"
       d="M 392.85715,296.64793 A 122.14286,64.285713 0 0 1 270.71429,360.93364 122.14286,64.285713 0 0 1 148.57143,296.64793 122.14286,64.285713 0 0 1 270.71429,232.36222 122.14286,64.285713 0 0 1 392.85715,296.64793 Z"
       id="path72793"
       inkscape:connector-curvature="0" />
    <path
       style="fill:none;fill-rule:evenodd;stroke:#000000;stroke-width:1px;stroke-linecap:butt;stroke-linejoin:miter;stroke-opacity:1"
       d="M 497.14286,75.219347 614.28571,160.93363 500,248.07649"
       id="path73461"
       inkscape:path-effect="#path-effect73463"
       inkscape:original-d="M 497.14286,75.219347 614.28571,160.93363 500,248.07649"
       inkscape:connector-curvature="0" />
    <use
       x="0"
       y="0"
       xlink:href="#path73461"
       id="use73465"
       transform="matrix(1.6112818,0,0,1.0507651,-381.29171,136.07981)"
       width="100%"
       height="100%"
       inkscape:tile-cx="595.71429"
       inkscape:tile-cy="310.21935"
       inkscape:tile-w="118.27355"
       inkscape:tile-h="173.65826"
       inkscape:tile-x0="536.8476"
       inkscape:tile-y0="223.38726" />
    <use
       x="0"
       y="0"
       xlink:href="#use73465"
       id="use73467"
       transform="translate(-294.28571,-198.57143)"
       width="100%"
       height="100%" />
    <use
       x="0"
       y="0"
       inkscape:tiled-clone-of="#use73465"
       xlink:href="#use73465"
       transform="matrix(-1,0,0,1,1309.7021,0)"
       id="use73471" />
    <path
       style="fill:none;fill-rule:evenodd;stroke:#000000;stroke-width:5.27915382;stroke-linecap:round;stroke-linejoin:miter;stroke-miterlimit:4;stroke-dasharray:none;stroke-opacity:0.70138891"
       d="m 449.24522,708.63815 c -5.87362,0.48357 -23.16536,1.35055 -33.92808,11.33299 -10.76272,9.98244 -10.45074,30.0905 -12.0528,31.80686 -13.1327,9.74608 1.03885,16.85033 2.73107,24.30382 1.58426,9.12266 1.46406,8.48738 7.28037,19.17972 5.8163,10.69233 14.17819,15.99605 21.87077,18.85411 7.69259,2.85807 9.58434,3.30224 14.13791,3.30224"
       id="path73475"
       inkscape:connector-curvature="0"
       sodipodi:nodetypes="cscczzc"
       inkscape:tile-cx="440"
       inkscape:tile-cy="809.50506"
       inkscape:tile-w="118.16008"
       inkscape:tile-h="223.8236"
       inkscape:tile-x0="380.59137"
       inkscape:tile-y0="697.61003" />
    <use
       x="0"
       y="0"
       inkscape:tiled-clone-of="#path73475"
       xlink:href="#path73475"
       id="use73477"
       style="fill:#f4d8d8;fill-opacity:0.5625;stroke:#000000;stroke-width:6;stroke-linecap:round;stroke-miterlimit:4;stroke-dasharray:none;stroke-opacity:0.70138891"
       width="100%"
       height="100%" />
    <use
       x="0"
       y="0"
       inkscape:tiled-clone-of="#path73475"
       xlink:href="#path73475"
       transform="matrix(-1,0,0,1,898.88504,0)"
       id="use73479"
       width="100%"
       height="100%" />
    <path
       style="fill:#f68585;fill-opacity:1;fill-rule:evenodd;stroke:#c96b6b;stroke-width:5.33194542;stroke-linecap:round;stroke-linejoin:miter;stroke-miterlimit:4;stroke-dasharray:none;stroke-opacity:1"
       d="m 437.243,644.21928 -29.06349,6.93257 -13.59852,25.06393 22.39756,-14.13179 17.86471,-5.06611 -10.6655,17.33143 23.19746,-17.59808 -9.59895,21.86429 25.86385,-20.79773 -10.13223,33.06305 21.86427,-18.66462 3.46629,20.53109 12.79861,-12.53196 9.06567,12.53196 -10.93214,-25.59721 -15.19834,-19.1979 -28.53021,-5.59939 z"
       id="path73497"
       inkscape:connector-curvature="0" />
    <ellipse
       style="color:#000000;clip-rule:nonzero;display:inline;overflow:visible;visibility:visible;opacity:1;isolation:auto;mix-blend-mode:normal;color-interpolation:sRGB;color-interpolation-filters:linearRGB;solid-color:#000000;solid-opacity:1;fill:#0e232e;fill-opacity:1;fill-rule:nonzero;stroke:#0e232e;stroke-width:5.33194542;stroke-linecap:round;stroke-linejoin:miter;stroke-miterlimit:4;stroke-dasharray:none;stroke-dashoffset:0;stroke-opacity:1;color-rendering:auto;image-rendering:auto;shape-rendering:auto;text-rendering:auto;enable-background:accumulate"
       id="path73499"
       cx="430.61044"
       cy="750.44672"
       rx="1.9997815"
       ry="1.5998251" />
    <ellipse
       ry="1.5998251"
       rx="1.9997815"
       cy="750.44672"
       cx="466.87317"
       id="ellipse73501"
       style="color:#000000;clip-rule:nonzero;display:inline;overflow:visible;visibility:visible;opacity:1;isolation:auto;mix-blend-mode:normal;color-interpolation:sRGB;color-interpolation-filters:linearRGB;solid-color:#000000;solid-opacity:1;fill:#0e232e;fill-opacity:1;fill-rule:nonzero;stroke:#0e232e;stroke-width:5.33194542;stroke-linecap:round;stroke-linejoin:miter;stroke-miterlimit:4;stroke-dasharray:none;stroke-dashoffset:0;stroke-opacity:1;color-rendering:auto;image-rendering:auto;shape-rendering:auto;text-rendering:auto;enable-background:accumulate" />
    <path
       style="fill:none;fill-rule:evenodd;stroke:#000000;stroke-width:3.16749215;stroke-linecap:round;stroke-linejoin:miter;stroke-miterlimit:4;stroke-dasharray:none;stroke-opacity:1"
       d="m 436.06578,786.67724 c 0,0 8.16008,5.10232 13.33188,5.33274 5.17179,0.23043 15.99825,-4.79947 15.99825,-4.79947"
       id="path73503"
       inkscape:connector-curvature="0"
       sodipodi:nodetypes="czc" />
    <path
       sodipodi:nodetypes="czc"
       inkscape:connector-curvature="0"
       id="path73505"
       d="m 442.19844,797.07611 c 0,0 2.02742,1.36939 7.19922,1.59982 5.17179,0.23042 6.3993,-0.79991 6.3993,-0.79991"
       style="fill:none;fill-rule:evenodd;stroke:#000000;stroke-width:3.16749215;stroke-linecap:round;stroke-linejoin:miter;stroke-miterlimit:4;stroke-dasharray:none;stroke-opacity:1" />
    <path
       style="fill:none;fill-rule:evenodd;stroke:#000000;stroke-width:3.16749215;stroke-linecap:round;stroke-linejoin:miter;stroke-miterlimit:4;stroke-dasharray:none;stroke-opacity:1"
       d="m 450.20829,766.95678 c 0,0 4.39484,6.21363 3.73292,8.79904 -0.66192,2.5854 -5.0661,3.99956 -5.0661,3.99956"
       id="path73534"
       inkscape:connector-curvature="0"
       sodipodi:nodetypes="czc" />
    <path
       style="fill:#ffd4c6;fill-rule:evenodd;stroke:#000000;stroke-width:5.27915382;stroke-linecap:round;stroke-linejoin:miter;stroke-miterlimit:4;stroke-dasharray:none;stroke-opacity:0.70138891;fill-opacity:0.625"
       d="m 294.85669,808.0616 c -7.69258,-2.85806 -16.05447,-8.16178 -21.87077,-18.85411 -5.81631,-10.69234 -5.69611,-10.05706 -7.28037,-19.17972 -1.69222,-7.45349 -15.86377,-14.55774 -2.73107,-24.30382 1.60206,-1.71636 1.29008,-21.82442 12.0528,-31.80686 10.76272,-9.98244 28.05446,-10.84942 34.12537,-11.33299 6.07091,0.48357 23.36265,1.35055 34.12537,11.33299 10.76272,9.98244 10.45074,30.0905 12.0528,31.80686 13.1327,9.74608 -1.03885,16.85033 -2.73107,24.30382 -1.58426,9.12266 -1.46406,8.48738 -7.28037,19.17972 -5.8163,10.69233 -14.17819,15.99605 -21.87077,18.85411 -7.69259,2.85807 -9.58434,3.30224 -14.29596,3.30224 -4.71162,0 -6.60337,-0.44417 -14.29596,-3.30224 z"
       id="path73475-3"
       inkscape:connector-curvature="0"
       sodipodi:nodetypes="zzccscscczzcz"
       inkscape:tile-cx="440"
       inkscape:tile-cy="809.50506"
       inkscape:tile-w="118.16008"
       inkscape:tile-h="223.8236"
       inkscape:tile-x0="380.59137"
       inkscape:tile-y0="697.61003" />
    <path
       style="fill:#f68585;fill-opacity:1;fill-rule:evenodd;stroke:#c96b6b;stroke-width:5.33194542;stroke-linecap:round;stroke-linejoin:miter;stroke-miterlimit:4;stroke-dasharray:none;stroke-opacity:1"
       d="m 300.16742,618.52237 -29.06349,6.93257 -13.59852,25.06393 22.39756,-14.13179 17.86471,-5.06611 -10.6655,17.33143 23.19746,-17.59808 -9.59895,21.86429 25.86385,-20.79773 -10.13223,33.06305 21.86427,-18.66462 3.46629,20.53109 12.7986,-12.53196 9.06567,12.53196 -10.93214,-25.59721 -15.19833,-19.1979 -28.53021,-5.59939 z"
       id="path73497-0"
       inkscape:connector-curvature="0" />
    <ellipse
       style="color:#000000;clip-rule:nonzero;display:inline;overflow:visible;visibility:visible;opacity:1;isolation:auto;mix-blend-mode:normal;color-interpolation:sRGB;color-interpolation-filters:linearRGB;solid-color:#000000;solid-opacity:1;fill:#0e232e;fill-opacity:1;fill-rule:nonzero;stroke:#0e232e;stroke-width:5.33194542;stroke-linecap:round;stroke-linejoin:miter;stroke-miterlimit:4;stroke-dasharray:none;stroke-dashoffset:0;stroke-opacity:1;color-rendering:auto;image-rendering:auto;shape-rendering:auto;text-rendering:auto;enable-background:accumulate"
       id="path73499-2"
       cx="290.32059"
       cy="744.39264"
       rx="1.9997815"
       ry="1.5998251" />
    <ellipse
       ry="1.5998251"
       rx="1.9997815"
       cy="744.39264"
       cx="326.58331"
       id="ellipse73501-0"
       style="color:#000000;clip-rule:nonzero;display:inline;overflow:visible;visibility:visible;opacity:1;isolation:auto;mix-blend-mode:normal;color-interpolation:sRGB;color-interpolation-filters:linearRGB;solid-color:#000000;solid-opacity:1;fill:#0e232e;fill-opacity:1;fill-rule:nonzero;stroke:#0e232e;stroke-width:5.33194542;stroke-linecap:round;stroke-linejoin:miter;stroke-miterlimit:4;stroke-dasharray:none;stroke-dashoffset:0;stroke-opacity:1;color-rendering:auto;image-rendering:auto;shape-rendering:auto;text-rendering:auto;enable-background:accumulate" />
    <path
       style="fill:none;fill-rule:evenodd;stroke:#000000;stroke-width:3.16749215;stroke-linecap:round;stroke-linejoin:miter;stroke-miterlimit:4;stroke-dasharray:none;stroke-opacity:1"
       d="m 295.77592,780.62319 c 0,0 8.16008,5.10232 13.33188,5.33274 5.17179,0.23043 15.99825,-4.79947 15.99825,-4.79947"
       id="path73503-0"
       inkscape:connector-curvature="0"
       sodipodi:nodetypes="czc" />
    <path
       sodipodi:nodetypes="czc"
       inkscape:connector-curvature="0"
       id="path73505-1"
       d="m 301.90858,791.02206 c 0,0 2.02742,1.36939 7.19922,1.59982 5.17179,0.23042 6.3993,-0.79991 6.3993,-0.79991"
       style="fill:none;fill-rule:evenodd;stroke:#000000;stroke-width:3.16749215;stroke-linecap:round;stroke-linejoin:miter;stroke-miterlimit:4;stroke-dasharray:none;stroke-opacity:1" />
    <path
       style="fill:none;fill-rule:evenodd;stroke:#000000;stroke-width:3.16749215;stroke-linecap:round;stroke-linejoin:miter;stroke-miterlimit:4;stroke-dasharray:none;stroke-opacity:1"
       d="m 309.91843,760.90273 c 0,0 4.39484,6.21363 3.73292,8.79904 -0.66192,2.5854 -5.0661,3.99956 -5.0661,3.99956"
       id="path73534-7"
       inkscape:connector-curvature="0"
       sodipodi:nodetypes="czc" />
  </g>
</svg>
